<svg xmlns="http://www.w3.org/2000/svg" width="17.779" height="15.68" viewBox="0 0 17.779 15.68">
  <g id="forex-rate-icon" transform="translate(-961.5 -66.5)">
    <path id="Path_92" data-name="Path 92" d="M14.446,6l2.036,2.036-4.338,4.338L8.587,8.818,2,15.414l1.253,1.253,5.334-5.334,3.556,3.556,5.6-5.592,2.036,2.036V6Z" transform="translate(959.5 60.5)" fill="#f7860a"/>
    <g id="Group_157" data-name="Group 157" transform="translate(963.278 72.38)">
      <path id="Path_92-2" data-name="Path 92" d="M0-4.869,1.654-6.539v5.3H0Z" transform="translate(0 11.007)" fill="#267aa4"/>
      <path id="Path_97" data-name="Path 97" d="M0-5.548l1.654-.99V-3.4H0Z" transform="translate(4.741 13.16)" fill="#267aa4"/>
      <path id="Path_95" data-name="Path 95" d="M0-4.869,1.654-6.539v5.3H0Z" transform="translate(7.112 11.007)" fill="#267aa4"/>
      <path id="Path_93" data-name="Path 93" d="M0-6.886l1.685-1.69V-.829H0Z" transform="translate(2.371 10.629)" fill="#267aa4"/>
      <path id="Path_94" data-name="Path 94" d="M0-6.886l1.685-1.69V-.829H0Z" transform="translate(9.482 10.629)" fill="#267aa4"/>
      <path id="Path_96" data-name="Path 96" d="M0-8.67l1.685-1.638v9.8H0Z" transform="translate(11.853 10.308)" fill="#267aa4"/>
    </g>
  </g>
</svg>
